# xmcd CD database file
#
# Track frame offsets:
#	150
#	19365
#	37871
#	49411
#	71658
#	98728
#	118900
#	135330
#	150211
#	175546
#	195698
#	211670
#	232642
#
# Disc length: 3334 seconds
#
# Revision: 0
# Processed by: cddbd v1.4PL0 Copyright (c) Steve Scherf et al.
# Submitted via: CDex 1.50
#
DISCID=9c0d040d
DTITLE=Divers - Cahors Blues Festival 2002
DYEAR=2002
DGENRE=Blues
TTITLE0=Viens Voir là
TTITLE1=Treat Me With Honesty
TTITLE2=Case Close
TTITLE3=La Même Chose
TTITLE4=Hoochie Coochie Girl
TTITLE5=Keep On Dreaming
TTITLE6=I Smell A Rat
TTITLE7=Rollin' and Tumblin'
TTITLE8=Le Prix Que L'on Payera
TTITLE9=Nineteen Years Old
TTITLE10=Pas D'ma Faute
TTITLE11=Work
TTITLE12=Hey Babe
EXTD=YEAR: 2002
EXTT0=
EXTT1=
EXTT2=
EXTT3=
EXTT4=
EXTT5=
EXTT6=
EXTT7=
EXTT8=
EXTT9=
EXTT10=
EXTT11=
EXTT12=
PLAYORDER=
